<svg xmlns="http://www.w3.org/2000/svg" width="64" viewBox="0 0 64 64"><path d="M64 16.8v-4.7h-7.6V7.6h-4.5V0h-4.7v7.6h-7V0h-4.7v7.6h-7V0h-4.7v7.6h-7V0h-4.5v7.6H7.6v4.5H0v4.7h7.6v7H0v4.7h7.6v7H0v4.7h7.6v7H0v4.5h7.6v4.5h4.5V64h4.7v-7.6h7V64h4.7v-7.6h7V64h4.7v-7.6h7V64h4.5v-7.6h4.5v-4.5H64v-4.7h-7.6v-7H64v-4.7h-7.6v-7H64v-4.7h-7.6v-7H64zM18.9 48.6h-3.5v-3.5h3.5v3.5zm0-29.7h-3.5v-3.5h3.5v3.5zm29.7 29.7h-3.5v-3.5h3.5v3.5zm0-29.7h-3.5v-3.5h3.5v3.5z"/><path d="M39.9 28.9l-9.7 18.5c-.1.3-.4.4-.7.4-.4 0-.8-.3-.8-1l1.8-11.3c.1-.4-.3-.8-.8-.8h-6.3c-.6 0-1-.6-.7-1.2l9.7-18.6c.1-.3.4-.4.7-.4.4 0 .8.4.8 1l-1.8 11.3c-.1.4.3 1 .8 1h6.3c.6-.2 1 .5.7 1.1z" fill="#ff0"/></svg>
